# MagicaVoxel @ Ephtracy

# group
o 

# material
mtllib Ehomaki.mtl
usemtl palette

# normals
vn -1 0 0
vn 1 0 0
vn 0 0 1
vn 0 0 -1
vn 0 -1 0
vn 0 1 0

# texcoords
vt 0.0175781 0.5
vt 0.0917969 0.5
vt 0.130859 0.5
vt 0.435547 0.5
vt 0.958984 0.5
vt 0.990234 0.5
vt 0.994141 0.5

# verts
v -0.9 0 0.3
v -0.9 0 -0.3
v -0.9 0.1 0.4
v -0.9 0.1 0.3
v -0.9 0.1 -0.3
v -0.9 0.1 -0.4
v -0.9 0.2 0.2
v -0.9 0.2 0
v -0.9 0.2 -0.2
v -0.9 0.4 0.2
v -0.9 0.4 0
v -0.9 0.4 -0.2
v -0.9 0.5 0.1
v -0.9 0.5 0
v -0.9 0.6 0.4
v -0.9 0.6 0.3
v -0.9 0.6 0.2
v -0.9 0.6 0.1
v -0.9 0.6 -0.2
v -0.9 0.6 -0.3
v -0.9 0.6 -0.4
v -0.9 0.7 0.4
v -0.9 0.7 0.3
v -0.9 0.7 -0.3
v -0.9 0.7 -0.4
v -0.9 0.8 0.3
v -0.9 0.8 -0.3
v 1.1 0 0.3
v 1.1 0 -0.3
v 1.1 0.1 0.4
v 1.1 0.1 0.3
v 1.1 0.1 -0.3
v 1.1 0.1 -0.4
v 1.1 0.2 0.2
v 1.1 0.2 0
v 1.1 0.2 -0.2
v 1.1 0.4 0.2
v 1.1 0.4 0
v 1.1 0.4 -0.2
v 1.1 0.5 0.1
v 1.1 0.5 0
v 1.1 0.6 0.4
v 1.1 0.6 0.3
v 1.1 0.6 0.2
v 1.1 0.6 0.1
v 1.1 0.6 -0.2
v 1.1 0.6 -0.3
v 1.1 0.6 -0.4
v 1.1 0.7 0.4
v 1.1 0.7 0.3
v 1.1 0.7 -0.3
v 1.1 0.7 -0.4
v 1.1 0.8 0.3
v 1.1 0.8 -0.3
v -0.9 0.1 0.4
v -0.9 0.6 0.4
v -0.9 0.7 0.4
v 1.1 0.1 0.4
v 1.1 0.6 0.4
v 1.1 0.7 0.4
v -0.9 0 0.3
v -0.9 0.1 0.3
v -0.9 0.7 0.3
v -0.9 0.8 0.3
v 1.1 0 0.3
v 1.1 0.1 0.3
v 1.1 0.7 0.3
v 1.1 0.8 0.3
v -0.9 0 -0.3
v -0.9 0.1 -0.3
v -0.9 0.7 -0.3
v -0.9 0.8 -0.3
v 1.1 0 -0.3
v 1.1 0.1 -0.3
v 1.1 0.7 -0.3
v 1.1 0.8 -0.3
v -0.9 0.1 -0.4
v -0.9 0.6 -0.4
v -0.9 0.7 -0.4
v 1.1 0.1 -0.4
v 1.1 0.6 -0.4
v 1.1 0.7 -0.4
v -0.9 0 0.3
v 1.1 0 0.3
v -0.9 0 -0.3
v 1.1 0 -0.3
v -0.9 0.1 0.4
v 1.1 0.1 0.4
v -0.9 0.1 0.3
v 1.1 0.1 0.3
v -0.9 0.1 -0.3
v 1.1 0.1 -0.3
v -0.9 0.1 -0.4
v 1.1 0.1 -0.4
v -0.9 0.7 0.4
v 1.1 0.7 0.4
v -0.9 0.7 0.3
v 1.1 0.7 0.3
v -0.9 0.7 -0.3
v 1.1 0.7 -0.3
v -0.9 0.7 -0.4
v 1.1 0.7 -0.4
v -0.9 0.8 0.3
v 1.1 0.8 0.3
v -0.9 0.8 -0.3
v 1.1 0.8 -0.3

# faces
f 4/6/1 2/6/1 1/6/1
f 5/6/1 2/6/1 4/6/1
f 7/5/1 5/5/1 4/5/1
f 8/5/1 5/5/1 7/5/1
f 9/5/1 5/5/1 8/5/1
f 10/5/1 7/5/1 4/5/1
f 10/1/1 8/1/1 7/1/1
f 11/3/1 9/3/1 8/3/1
f 11/1/1 8/1/1 10/1/1
f 12/5/1 5/5/1 9/5/1
f 12/3/1 9/3/1 11/3/1
f 13/4/1 11/4/1 10/4/1
f 14/2/1 12/2/1 11/2/1
f 14/4/1 11/4/1 13/4/1
f 15/7/1 4/7/1 3/7/1
f 16/5/1 10/5/1 4/5/1
f 16/7/1 4/7/1 15/7/1
f 17/4/1 13/4/1 10/4/1
f 17/5/1 10/5/1 16/5/1
f 18/2/1 14/2/1 13/2/1
f 18/4/1 13/4/1 17/4/1
f 19/2/1 12/2/1 14/2/1
f 19/2/1 14/2/1 18/2/1
f 19/5/1 5/5/1 12/5/1
f 20/7/1 6/7/1 5/7/1
f 20/5/1 5/5/1 19/5/1
f 21/7/1 6/7/1 20/7/1
f 22/6/1 16/6/1 15/6/1
f 23/5/1 18/5/1 17/5/1
f 23/6/1 16/6/1 22/6/1
f 23/5/1 19/5/1 18/5/1
f 23/5/1 17/5/1 16/5/1
f 23/5/1 20/5/1 19/5/1
f 24/6/1 21/6/1 20/6/1
f 24/5/1 20/5/1 23/5/1
f 25/6/1 21/6/1 24/6/1
f 26/6/1 24/6/1 23/6/1
f 27/6/1 24/6/1 26/6/1
f 28/6/2 29/6/2 31/6/2
f 31/6/2 29/6/2 32/6/2
f 31/5/2 32/5/2 34/5/2
f 34/5/2 32/5/2 35/5/2
f 35/5/2 32/5/2 36/5/2
f 31/5/2 34/5/2 37/5/2
f 34/1/2 35/1/2 37/1/2
f 35/3/2 36/3/2 38/3/2
f 37/1/2 35/1/2 38/1/2
f 36/5/2 32/5/2 39/5/2
f 38/3/2 36/3/2 39/3/2
f 37/4/2 38/4/2 40/4/2
f 38/2/2 39/2/2 41/2/2
f 40/4/2 38/4/2 41/4/2
f 30/7/2 31/7/2 42/7/2
f 31/5/2 37/5/2 43/5/2
f 42/7/2 31/7/2 43/7/2
f 37/4/2 40/4/2 44/4/2
f 43/5/2 37/5/2 44/5/2
f 40/2/2 41/2/2 45/2/2
f 44/4/2 40/4/2 45/4/2
f 41/2/2 39/2/2 46/2/2
f 45/2/2 41/2/2 46/2/2
f 39/5/2 32/5/2 46/5/2
f 32/7/2 33/7/2 47/7/2
f 46/5/2 32/5/2 47/5/2
f 47/7/2 33/7/2 48/7/2
f 42/6/2 43/6/2 49/6/2
f 44/5/2 45/5/2 50/5/2
f 49/6/2 43/6/2 50/6/2
f 45/5/2 46/5/2 50/5/2
f 43/5/2 44/5/2 50/5/2
f 46/5/2 47/5/2 50/5/2
f 47/6/2 48/6/2 51/6/2
f 50/5/2 47/5/2 51/5/2
f 51/6/2 48/6/2 52/6/2
f 50/6/2 51/6/2 53/6/2
f 53/6/2 51/6/2 54/6/2
f 58/7/3 56/7/3 55/7/3
f 59/6/3 57/6/3 56/6/3
f 59/7/3 56/7/3 58/7/3
f 60/6/3 57/6/3 59/6/3
f 65/6/3 62/6/3 61/6/3
f 66/6/3 62/6/3 65/6/3
f 67/6/3 64/6/3 63/6/3
f 68/6/3 64/6/3 67/6/3
f 69/6/4 70/6/4 73/6/4
f 73/6/4 70/6/4 74/6/4
f 71/6/4 72/6/4 75/6/4
f 75/6/4 72/6/4 76/6/4
f 77/7/4 78/7/4 80/7/4
f 78/6/4 79/6/4 81/6/4
f 80/7/4 78/7/4 81/7/4
f 81/6/4 79/6/4 82/6/4
f 85/6/5 84/6/5 83/6/5
f 86/6/5 84/6/5 85/6/5
f 89/7/5 88/7/5 87/7/5
f 90/7/5 88/7/5 89/7/5
f 93/7/5 92/7/5 91/7/5
f 94/7/5 92/7/5 93/7/5
f 95/6/6 96/6/6 97/6/6
f 97/6/6 96/6/6 98/6/6
f 99/6/6 100/6/6 101/6/6
f 101/6/6 100/6/6 102/6/6
f 103/6/6 104/6/6 105/6/6
f 105/6/6 104/6/6 106/6/6
