# This file uses centimeters as units for non-parametric coordinates.

mtllib Kyubu_Lv3.mtl
g default
v -0.400000 0.000000 0.400000
v -0.400000 0.000000 -0.500000
v -0.400000 0.900000 0.400000
v -0.400000 0.900000 -0.500000
v 0.500000 0.000000 0.400000
v 0.500000 0.000000 -0.500000
v 0.500000 0.900000 0.400000
v 0.500000 0.900000 -0.500000
v -0.400000 0.000000 0.400000
v -0.400000 0.900000 0.400000
v -0.200000 0.400000 0.400000
v -0.200000 0.500000 0.400000
v -0.200000 0.700000 0.400000
v -0.100000 0.400000 0.400000
v -0.100000 0.500000 0.400000
v -0.100000 0.700000 0.400000
v 0.200000 0.400000 0.400000
v 0.200000 0.500000 0.400000
v 0.200000 0.700000 0.400000
v 0.300000 0.400000 0.400000
v 0.300000 0.500000 0.400000
v 0.300000 0.700000 0.400000
v 0.500000 0.000000 0.400000
v 0.500000 0.900000 0.400000
v -0.400000 0.000000 -0.500000
v -0.400000 0.900000 -0.500000
v 0.500000 0.000000 -0.500000
v 0.500000 0.900000 -0.500000
v -0.400000 0.000000 0.400000
v 0.500000 0.000000 0.400000
v -0.400000 0.000000 -0.500000
v 0.500000 0.000000 -0.500000
v -0.400000 0.900000 0.400000
v 0.500000 0.900000 0.400000
v -0.400000 0.900000 -0.500000
v 0.500000 0.900000 -0.500000
vt 0.720703 0.500000
vt 0.958984 0.500000
vt 0.994141 0.500000
vt 0.720703 0.500000
vt 0.720703 0.500000
vt 0.720703 0.500000
vt 0.720703 0.500000
vt 0.720703 0.500000
vt 0.720703 0.500000
vt 0.720703 0.500000
vt 0.720703 0.500000
vt 0.720703 0.500000
vt 0.720703 0.500000
vt 0.720703 0.500000
vt 0.720703 0.500000
vt 0.720703 0.500000
vt 0.958984 0.500000
vt 0.958984 0.500000
vt 0.994141 0.500000
vt 0.994141 0.500000
vt 0.958984 0.500000
vt 0.720703 0.500000
vt 0.994141 0.500000
vt 0.720703 0.500000
vt 0.720703 0.500000
vt 0.720703 0.500000
vt 0.720703 0.500000
vt 0.958984 0.500000
vt 0.958984 0.500000
vt 0.958984 0.500000
vt 0.720703 0.500000
vt 0.994141 0.500000
vt 0.994141 0.500000
vt 0.994141 0.500000
vt 0.958984 0.500000
vt 0.720703 0.500000
vt 0.994141 0.500000
vt 0.720703 0.500000
vt 0.720703 0.500000
vt 0.720703 0.500000
vt 0.720703 0.500000
vt 0.720703 0.500000
vt 0.720703 0.500000
vt 0.720703 0.500000
vt 0.720703 0.500000
vt 0.720703 0.500000
vt 0.720703 0.500000
vt 0.720703 0.500000
vt 0.720703 0.500000
vt 0.720703 0.500000
vt 0.720703 0.500000
vt 0.720703 0.500000
vn -1.000000 0.000000 0.000000
vn -1.000000 0.000000 0.000000
vn -1.000000 0.000000 0.000000
vn -1.000000 0.000000 0.000000
vn -1.000000 0.000000 0.000000
vn -1.000000 0.000000 0.000000
vn 1.000000 0.000000 0.000000
vn 1.000000 0.000000 0.000000
vn 1.000000 0.000000 0.000000
vn 1.000000 0.000000 0.000000
vn 1.000000 0.000000 0.000000
vn 1.000000 0.000000 0.000000
vn 0.000000 0.000000 1.000000
vn 0.000000 0.000000 1.000000
vn 0.000000 0.000000 1.000000
vn 0.000000 0.000000 1.000000
vn 0.000000 0.000000 1.000000
vn 0.000000 0.000000 1.000000
vn 0.000000 0.000000 1.000000
vn 0.000000 0.000000 1.000000
vn 0.000000 0.000000 1.000000
vn 0.000000 0.000000 1.000000
vn 0.000000 0.000000 1.000000
vn 0.000000 0.000000 1.000000
vn 0.000000 0.000000 1.000000
vn 0.000000 0.000000 1.000000
vn 0.000000 0.000000 1.000000
vn 0.000000 0.000000 1.000000
vn 0.000000 0.000000 1.000000
vn 0.000000 0.000000 1.000000
vn 0.000000 0.000000 1.000000
vn 0.000000 0.000000 1.000000
vn 0.000000 0.000000 1.000000
vn 0.000000 0.000000 1.000000
vn 0.000000 0.000000 1.000000
vn 0.000000 0.000000 1.000000
vn 0.000000 0.000000 1.000000
vn 0.000000 0.000000 1.000000
vn 0.000000 0.000000 1.000000
vn 0.000000 0.000000 1.000000
vn 0.000000 0.000000 1.000000
vn 0.000000 0.000000 1.000000
vn 0.000000 0.000000 1.000000
vn 0.000000 0.000000 1.000000
vn 0.000000 0.000000 1.000000
vn 0.000000 0.000000 1.000000
vn 0.000000 0.000000 1.000000
vn 0.000000 0.000000 1.000000
vn 0.000000 0.000000 1.000000
vn 0.000000 0.000000 1.000000
vn 0.000000 0.000000 1.000000
vn 0.000000 0.000000 1.000000
vn 0.000000 0.000000 1.000000
vn 0.000000 0.000000 1.000000
vn 0.000000 0.000000 1.000000
vn 0.000000 0.000000 1.000000
vn 0.000000 0.000000 1.000000
vn 0.000000 0.000000 1.000000
vn 0.000000 0.000000 1.000000
vn 0.000000 0.000000 1.000000
vn 0.000000 0.000000 1.000000
vn 0.000000 0.000000 1.000000
vn 0.000000 0.000000 1.000000
vn 0.000000 0.000000 1.000000
vn 0.000000 0.000000 1.000000
vn 0.000000 0.000000 1.000000
vn 0.000000 0.000000 1.000000
vn 0.000000 0.000000 1.000000
vn 0.000000 0.000000 1.000000
vn 0.000000 0.000000 1.000000
vn 0.000000 0.000000 1.000000
vn 0.000000 0.000000 1.000000
vn 0.000000 0.000000 1.000000
vn 0.000000 0.000000 1.000000
vn 0.000000 0.000000 1.000000
vn 0.000000 0.000000 1.000000
vn 0.000000 0.000000 1.000000
vn 0.000000 0.000000 1.000000
vn 0.000000 0.000000 1.000000
vn 0.000000 0.000000 1.000000
vn 0.000000 0.000000 1.000000
vn 0.000000 0.000000 1.000000
vn 0.000000 0.000000 1.000000
vn 0.000000 0.000000 1.000000
vn 0.000000 0.000000 1.000000
vn 0.000000 0.000000 1.000000
vn 0.000000 0.000000 1.000000
vn 0.000000 0.000000 1.000000
vn 0.000000 0.000000 1.000000
vn 0.000000 0.000000 1.000000
vn 0.000000 0.000000 -1.000000
vn 0.000000 0.000000 -1.000000
vn 0.000000 0.000000 -1.000000
vn 0.000000 0.000000 -1.000000
vn 0.000000 0.000000 -1.000000
vn 0.000000 0.000000 -1.000000
vn 0.000000 -1.000000 0.000000
vn 0.000000 -1.000000 0.000000
vn 0.000000 -1.000000 0.000000
vn 0.000000 -1.000000 0.000000
vn 0.000000 -1.000000 0.000000
vn 0.000000 -1.000000 0.000000
vn 0.000000 1.000000 0.000000
vn 0.000000 1.000000 0.000000
vn 0.000000 1.000000 0.000000
vn 0.000000 1.000000 0.000000
vn 0.000000 1.000000 0.000000
vn 0.000000 1.000000 0.000000
s off
g Kyubu_Lv3:Mesh
usemtl Kyubu_Lv3:palette
f 3/1/1 2/4/2 1/5/3
f 4/6/4 2/4/5 3/1/6
f 5/7/7 6/8/8 7/9/9
f 7/9/10 6/8/11 8/10/12
f 11/11/13 10/12/14 9/13/15
f 12/14/16 10/12/17 11/11/18
f 13/15/19 10/12/20 12/14/21
f 14/16/22 11/11/23 9/13/24
f 14/2/25 12/17/26 11/18/27
f 15/3/28 13/19/29 12/20/30
f 15/21/31 12/17/32 14/2/33
f 16/22/34 10/12/35 13/15/36
f 16/23/37 13/19/38 15/3/39
f 17/24/40 15/25/41 14/16/42
f 17/24/43 14/16/44 9/13/45
f 17/24/46 16/22/47 15/25/48
f 18/26/49 16/22/50 17/24/51
f 19/27/52 10/12/53 16/22/54
f 19/27/55 16/22/56 18/26/57
f 20/28/58 18/29/59 17/30/60
f 20/31/61 17/24/62 9/13/63
f 21/32/64 19/33/65 18/34/66
f 21/35/67 18/29/68 20/28/69
f 22/36/70 10/12/71 19/27/72
f 22/37/73 19/33/74 21/32/75
f 23/38/76 21/39/77 20/31/78
f 23/38/79 20/31/80 9/13/81
f 23/38/82 22/36/83 21/39/84
f 24/40/85 10/12/86 22/36/87
f 24/40/88 22/36/89 23/38/90
f 25/41/91 26/42/92 27/43/93
f 27/43/94 26/42/95 28/44/96
f 31/45/97 30/46/98 29/47/99
f 32/48/100 30/46/101 31/45/102
f 33/49/103 34/50/104 35/51/105
f 35/51/106 34/50/107 36/52/108
