# MagicaVoxel @ Ephtracy

# group
o 

# material
mtllib TV.mtl
usemtl palette

# normals
vn -1 0 0
vn 1 0 0
vn 0 0 1
vn 0 0 -1
vn 0 -1 0
vn 0 1 0

# texcoords
vt 0.0214844 0.5
vt 0.142578 0.5
vt 0.970703 0.5
vt 0.978516 0.5
vt 0.994141 0.5

# verts
v -2 0.5 0.2
v -2 0.5 0
v -2 2.5 0.2
v -2 2.5 0
v -1.9 0.5 0
v -1.9 0.5 -0.1
v -1.9 2.5 0
v -1.9 2.5 -0.1
v -0.9 0 0.4
v -0.9 0 -0.3
v -0.9 0.1 0.4
v -0.9 0.1 -0.3
v -0.2 0.1 0.1
v -0.2 0.1 0
v -0.2 0.5 0.1
v -0.2 0.5 0
v 2.38419e-07 0.2 0.1
v 2.38419e-07 0.2 0
v 2.38419e-07 0.4 0.1
v 2.38419e-07 0.4 0
v 1.9 0.6 0.2
v 1.9 0.6 0.1
v 1.9 2.4 0.2
v 1.9 2.4 0.1
v -1.9 0.6 0.2
v -1.9 0.6 0.1
v -1.9 2.4 0.2
v -1.9 2.4 0.1
v -0.0999999 0.2 0.1
v -0.0999999 0.2 0
v -0.0999999 0.4 0.1
v -0.0999999 0.4 0
v 0.1 0.1 0.1
v 0.1 0.1 0
v 0.1 0.5 0.1
v 0.1 0.5 0
v 0.9 0 0.4
v 0.9 0 -0.3
v 0.9 0.1 0.4
v 0.9 0.1 -0.3
v 2 0.5 0.2
v 2 0.5 -0.1
v 2 2.5 0.2
v 2 2.5 -0.1
v -0.9 0 0.4
v -0.9 0.1 0.4
v 0.9 0 0.4
v 0.9 0.1 0.4
v -2 0.5 0.2
v -2 2.5 0.2
v -1.9 0.6 0.2
v -1.9 2.4 0.2
v 1.9 0.6 0.2
v 1.9 2.4 0.2
v 2 0.5 0.2
v 2 2.5 0.2
v -1.9 0.6 0.1
v -1.9 2.4 0.1
v -1.8 1 0.1
v -1.8 1.2 0.1
v -1.8 1.7 0.1
v -1.8 2.1 0.1
v -1.7 1.2 0.1
v -1.7 1.3 0.1
v -1.7 1.6 0.1
v -1.7 1.7 0.1
v -1.7 2.1 0.1
v -1.7 2.2 0.1
v -1.6 0.6 0.1
v -1.6 0.8 0.1
v -1.6 1 0.1
v -1.6 1.2 0.1
v -1.6 1.3 0.1
v -1.6 1.5 0.1
v -1.6 1.7 0.1
v -1.6 2.1 0.1
v -1.5 0.8 0.1
v -1.5 1 0.1
v -1.5 1.3 0.1
v -1.5 1.5 0.1
v -1.4 0.6 0.1
v -1.4 0.8 0.1
v -1.4 0.9 0.1
v -1.4 1 0.1
v -1.4 1.1 0.1
v -1.4 1.2 0.1
v -1.4 1.3 0.1
v -1.4 1.4 0.1
v -1.4 1.5 0.1
v -1.4 1.6 0.1
v -1.4 1.8 0.1
v -1.4 2 0.1
v -1.3 0.6 0.1
v -1.3 0.8 0.1
v -1.3 0.9 0.1
v -1.3 1 0.1
v -1.3 1.1 0.1
v -1.3 1.2 0.1
v -1.3 1.3 0.1
v -1.3 1.4 0.1
v -1.3 1.5 0.1
v -1.3 1.6 0.1
v -1.3 1.8 0.1
v -1.3 2 0.1
v -1.2 0.8 0.1
v -1.2 1 0.1
v -1.2 1.3 0.1
v -1.2 1.5 0.1
v -1.2 1.8 0.1
v -1.2 2 0.1
v -1.1 0.6 0.1
v -1.1 0.8 0.1
v -1.1 1 0.1
v -1.1 1.2 0.1
v -1.1 1.3 0.1
v -1.1 1.5 0.1
v -1.1 1.8 0.1
v -1.1 2 0.1
v -1 1.2 0.1
v -1 1.3 0.1
v -1 1.6 0.1
v -1 1.7 0.1
v -1 2.1 0.1
v -1 2.2 0.1
v -0.9 1 0.1
v -0.9 1.2 0.1
v -0.9 1.7 0.1
v -0.9 2.1 0.1
v -0.2 0.1 0.1
v -0.2 0.5 0.1
v -0.0999999 0.2 0.1
v -0.0999999 0.4 0.1
v 2.38419e-07 0.2 0.1
v 2.38419e-07 0.4 0.1
v 0.1 0.1 0.1
v 0.1 0.5 0.1
v 0.8 1 0.1
v 0.8 1.2 0.1
v 0.8 1.7 0.1
v 0.8 2.1 0.1
v 0.9 1.2 0.1
v 0.9 1.3 0.1
v 0.9 1.6 0.1
v 0.9 1.7 0.1
v 0.9 2.1 0.1
v 0.9 2.2 0.1
v 1 0.6 0.1
v 1 0.8 0.1
v 1 1 0.1
v 1 1.2 0.1
v 1 1.3 0.1
v 1 1.5 0.1
v 1 1.8 0.1
v 1 2 0.1
v 1.1 0.8 0.1
v 1.1 1 0.1
v 1.1 1.3 0.1
v 1.1 1.5 0.1
v 1.1 1.8 0.1
v 1.1 2 0.1
v 1.2 0.6 0.1
v 1.2 0.8 0.1
v 1.2 0.9 0.1
v 1.2 1 0.1
v 1.2 1.1 0.1
v 1.2 1.2 0.1
v 1.2 1.3 0.1
v 1.2 1.4 0.1
v 1.2 1.5 0.1
v 1.2 1.6 0.1
v 1.2 1.8 0.1
v 1.2 2 0.1
v 1.3 0.6 0.1
v 1.3 0.8 0.1
v 1.3 0.9 0.1
v 1.3 1 0.1
v 1.3 1.1 0.1
v 1.3 1.2 0.1
v 1.3 1.3 0.1
v 1.3 1.4 0.1
v 1.3 1.5 0.1
v 1.3 1.6 0.1
v 1.3 1.8 0.1
v 1.3 2 0.1
v 1.4 0.8 0.1
v 1.4 1 0.1
v 1.4 1.3 0.1
v 1.4 1.5 0.1
v 1.5 0.6 0.1
v 1.5 0.8 0.1
v 1.5 1 0.1
v 1.5 1.2 0.1
v 1.5 1.3 0.1
v 1.5 1.5 0.1
v 1.5 1.7 0.1
v 1.5 2.1 0.1
v 1.6 1.2 0.1
v 1.6 1.3 0.1
v 1.6 1.6 0.1
v 1.6 1.7 0.1
v 1.6 2.1 0.1
v 1.6 2.2 0.1
v 1.7 1 0.1
v 1.7 1.2 0.1
v 1.7 1.7 0.1
v 1.7 2.1 0.1
v 1.9 0.6 0.1
v 1.9 2.4 0.1
v -2 0.5 0
v -2 2.5 0
v -1.9 0.5 0
v -1.9 2.5 0
v -0.2 0.1 0
v -0.2 0.5 0
v -0.0999999 0.2 0
v -0.0999999 0.4 0
v 2.38419e-07 0.2 0
v 2.38419e-07 0.4 0
v 0.1 0.1 0
v 0.1 0.5 0
v -1.9 0.5 -0.1
v -1.9 2.5 -0.1
v 2 0.5 -0.1
v 2 2.5 -0.1
v -0.9 0 -0.3
v -0.9 0.1 -0.3
v 0.9 0 -0.3
v 0.9 0.1 -0.3
v -0.9 0 0.4
v 0.9 0 0.4
v -0.9 0 -0.3
v 0.9 0 -0.3
v -0.0999999 0.4 0.1
v 2.38419e-07 0.4 0.1
v -0.0999999 0.4 0
v 2.38419e-07 0.4 0
v -2 0.5 0.2
v 2 0.5 0.2
v -0.2 0.5 0.1
v 0.1 0.5 0.1
v -2 0.5 0
v -1.9 0.5 0
v -0.2 0.5 0
v 0.1 0.5 0
v -1.9 0.5 -0.1
v 2 0.5 -0.1
v -1.9 2.4 0.2
v 1.9 2.4 0.2
v -1.9 2.4 0.1
v 1.9 2.4 0.1
v -0.9 0.1 0.4
v 0.9 0.1 0.4
v -0.2 0.1 0.1
v 0.1 0.1 0.1
v -0.2 0.1 0
v 0.1 0.1 0
v -0.9 0.1 -0.3
v 0.9 0.1 -0.3
v -0.0999999 0.2 0.1
v 2.38419e-07 0.2 0.1
v -0.0999999 0.2 0
v 2.38419e-07 0.2 0
v -1.9 0.6 0.2
v 1.9 0.6 0.2
v -1.9 0.6 0.1
v -1.6 0.6 0.1
v -1.4 0.6 0.1
v -1.3 0.6 0.1
v -1.1 0.6 0.1
v 1 0.6 0.1
v 1.2 0.6 0.1
v 1.3 0.6 0.1
v 1.5 0.6 0.1
v 1.9 0.6 0.1
v -2 2.5 0.2
v 2 2.5 0.2
v -2 2.5 0
v -1.9 2.5 0
v -1.9 2.5 -0.1
v 2 2.5 -0.1

# faces
f 3/3/1 2/3/1 1/3/1
f 4/3/1 2/3/1 3/3/1
f 7/3/1 6/3/1 5/3/1
f 8/3/1 6/3/1 7/3/1
f 11/3/1 10/3/1 9/3/1
f 12/3/1 10/3/1 11/3/1
f 15/3/1 14/3/1 13/3/1
f 16/3/1 14/3/1 15/3/1
f 19/3/1 18/3/1 17/3/1
f 20/3/1 18/3/1 19/3/1
f 23/3/1 22/3/1 21/3/1
f 24/3/1 22/3/1 23/3/1
f 25/3/2 26/3/2 27/3/2
f 27/3/2 26/3/2 28/3/2
f 29/3/2 30/3/2 31/3/2
f 31/3/2 30/3/2 32/3/2
f 33/3/2 34/3/2 35/3/2
f 35/3/2 34/3/2 36/3/2
f 37/3/2 38/3/2 39/3/2
f 39/3/2 38/3/2 40/3/2
f 41/3/2 42/3/2 43/3/2
f 43/3/2 42/3/2 44/3/2
f 47/3/3 46/3/3 45/3/3
f 48/3/3 46/3/3 47/3/3
f 51/3/3 50/3/3 49/3/3
f 52/3/3 50/3/3 51/3/3
f 53/3/3 51/3/3 49/3/3
f 54/3/3 50/3/3 52/3/3
f 55/3/3 53/3/3 49/3/3
f 55/3/3 54/3/3 53/3/3
f 56/3/3 50/3/3 54/3/3
f 56/3/3 54/3/3 55/3/3
f 59/2/3 58/2/3 57/2/3
f 60/2/3 58/2/3 59/2/3
f 61/2/3 58/2/3 60/2/3
f 62/2/3 58/2/3 61/2/3
f 63/5/3 60/5/3 59/5/3
f 63/2/3 61/2/3 60/2/3
f 64/2/3 61/2/3 63/2/3
f 65/2/3 61/2/3 64/2/3
f 66/4/3 62/4/3 61/4/3
f 66/2/3 61/2/3 65/2/3
f 67/2/3 58/2/3 62/2/3
f 67/4/3 62/4/3 66/4/3
f 68/2/3 58/2/3 67/2/3
f 69/2/3 59/2/3 57/2/3
f 70/2/3 59/2/3 69/2/3
f 71/5/3 63/5/3 59/5/3
f 71/2/3 59/2/3 70/2/3
f 72/4/3 64/4/3 63/4/3
f 72/5/3 63/5/3 71/5/3
f 73/2/3 65/2/3 64/2/3
f 73/4/3 64/4/3 72/4/3
f 74/2/3 65/2/3 73/2/3
f 75/4/3 66/4/3 65/4/3
f 75/4/3 67/4/3 66/4/3
f 75/4/3 68/4/3 67/4/3
f 76/4/3 68/4/3 75/4/3
f 77/4/3 70/4/3 69/4/3
f 77/2/3 71/2/3 70/2/3
f 78/4/3 72/4/3 71/4/3
f 78/2/3 71/2/3 77/2/3
f 79/4/3 74/4/3 73/4/3
f 79/5/3 73/5/3 72/5/3
f 80/2/3 65/2/3 74/2/3
f 80/4/3 74/4/3 79/4/3
f 81/4/3 77/4/3 69/4/3
f 82/5/3 78/5/3 77/5/3
f 82/4/3 77/4/3 81/4/3
f 83/5/3 78/5/3 82/5/3
f 84/4/3 72/4/3 78/4/3
f 84/5/3 78/5/3 83/5/3
f 85/4/3 72/4/3 84/4/3
f 86/5/3 79/5/3 72/5/3
f 86/4/3 72/4/3 85/4/3
f 86/5/3 80/5/3 79/5/3
f 87/5/3 80/5/3 86/5/3
f 88/5/3 80/5/3 87/5/3
f 89/2/3 65/2/3 80/2/3
f 89/5/3 80/5/3 88/5/3
f 90/4/3 75/4/3 65/4/3
f 90/2/3 65/2/3 89/2/3
f 91/5/3 76/5/3 75/5/3
f 92/5/3 76/5/3 91/5/3
f 93/2/3 83/2/3 82/2/3
f 93/2/3 82/2/3 81/2/3
f 94/2/3 83/2/3 93/2/3
f 95/4/3 85/4/3 84/4/3
f 95/2/3 83/2/3 94/2/3
f 95/4/3 84/4/3 83/4/3
f 96/4/3 85/4/3 95/4/3
f 97/5/3 86/5/3 85/5/3
f 97/4/3 85/4/3 96/4/3
f 97/5/3 87/5/3 86/5/3
f 98/5/3 87/5/3 97/5/3
f 99/1/3 88/1/3 87/1/3
f 99/5/3 87/5/3 98/5/3
f 100/5/3 89/5/3 88/5/3
f 100/1/3 88/1/3 99/1/3
f 100/5/3 90/5/3 89/5/3
f 101/5/3 90/5/3 100/5/3
f 102/4/3 75/4/3 90/4/3
f 102/5/3 90/5/3 101/5/3
f 103/1/3 92/1/3 91/1/3
f 103/5/3 91/5/3 75/5/3
f 104/5/3 76/5/3 92/5/3
f 104/1/3 92/1/3 103/1/3
f 105/4/3 94/4/3 93/4/3
f 105/5/3 96/5/3 95/5/3
f 105/5/3 95/5/3 94/5/3
f 106/4/3 98/4/3 97/4/3
f 106/5/3 96/5/3 105/5/3
f 106/4/3 97/4/3 96/4/3
f 107/5/3 101/5/3 100/5/3
f 107/5/3 99/5/3 98/5/3
f 107/5/3 100/5/3 99/5/3
f 108/2/3 102/2/3 101/2/3
f 108/5/3 101/5/3 107/5/3
f 109/5/3 103/5/3 75/5/3
f 109/5/3 104/5/3 103/5/3
f 110/5/3 76/5/3 104/5/3
f 110/5/3 104/5/3 109/5/3
f 111/4/3 105/4/3 93/4/3
f 112/2/3 106/2/3 105/2/3
f 112/4/3 105/4/3 111/4/3
f 113/4/3 98/4/3 106/4/3
f 113/2/3 106/2/3 112/2/3
f 114/5/3 107/5/3 98/5/3
f 114/4/3 98/4/3 113/4/3
f 115/4/3 108/4/3 107/4/3
f 115/5/3 107/5/3 114/5/3
f 116/2/3 102/2/3 108/2/3
f 116/4/3 108/4/3 115/4/3
f 117/5/3 109/5/3 75/5/3
f 117/1/3 110/1/3 109/1/3
f 118/5/3 76/5/3 110/5/3
f 118/1/3 110/1/3 117/1/3
f 119/4/3 115/4/3 114/4/3
f 119/5/3 114/5/3 113/5/3
f 120/2/3 116/2/3 115/2/3
f 120/4/3 115/4/3 119/4/3
f 121/2/3 102/2/3 116/2/3
f 121/2/3 116/2/3 120/2/3
f 121/4/3 75/4/3 102/4/3
f 122/5/3 117/5/3 75/5/3
f 122/4/3 75/4/3 121/4/3
f 122/5/3 118/5/3 117/5/3
f 123/4/3 68/4/3 76/4/3
f 123/5/3 118/5/3 122/5/3
f 123/5/3 76/5/3 118/5/3
f 124/2/3 58/2/3 68/2/3
f 124/4/3 68/4/3 123/4/3
f 125/2/3 112/2/3 111/2/3
f 125/2/3 113/2/3 112/2/3
f 125/5/3 119/5/3 113/5/3
f 126/2/3 120/2/3 119/2/3
f 126/5/3 119/5/3 125/5/3
f 126/2/3 121/2/3 120/2/3
f 126/2/3 122/2/3 121/2/3
f 127/4/3 123/4/3 122/4/3
f 127/2/3 122/2/3 126/2/3
f 128/2/3 124/2/3 123/2/3
f 128/4/3 123/4/3 127/4/3
f 131/3/3 130/3/3 129/3/3
f 132/3/3 130/3/3 131/3/3
f 133/3/3 131/3/3 129/3/3
f 134/3/3 130/3/3 132/3/3
f 135/3/3 133/3/3 129/3/3
f 135/3/3 134/3/3 133/3/3
f 136/3/3 130/3/3 134/3/3
f 136/3/3 134/3/3 135/3/3
f 137/2/3 126/2/3 125/2/3
f 137/2/3 125/2/3 111/2/3
f 137/2/3 127/2/3 126/2/3
f 137/2/3 128/2/3 127/2/3
f 138/2/3 128/2/3 137/2/3
f 139/2/3 128/2/3 138/2/3
f 140/2/3 124/2/3 128/2/3
f 140/2/3 128/2/3 139/2/3
f 141/2/3 139/2/3 138/2/3
f 141/5/3 138/5/3 137/5/3
f 142/2/3 139/2/3 141/2/3
f 143/2/3 139/2/3 142/2/3
f 144/4/3 140/4/3 139/4/3
f 144/2/3 139/2/3 143/2/3
f 145/2/3 124/2/3 140/2/3
f 145/4/3 140/4/3 144/4/3
f 146/2/3 58/2/3 124/2/3
f 146/2/3 124/2/3 145/2/3
f 147/2/3 137/2/3 111/2/3
f 148/2/3 137/2/3 147/2/3
f 149/5/3 141/5/3 137/5/3
f 149/2/3 137/2/3 148/2/3
f 150/4/3 142/4/3 141/4/3
f 150/5/3 141/5/3 149/5/3
f 151/2/3 143/2/3 142/2/3
f 151/4/3 142/4/3 150/4/3
f 152/2/3 143/2/3 151/2/3
f 153/5/3 145/5/3 144/5/3
f 154/5/3 145/5/3 153/5/3
f 155/4/3 148/4/3 147/4/3
f 155/2/3 149/2/3 148/2/3
f 156/4/3 150/4/3 149/4/3
f 156/2/3 149/2/3 155/2/3
f 157/5/3 151/5/3 150/5/3
f 157/4/3 152/4/3 151/4/3
f 158/2/3 143/2/3 152/2/3
f 158/4/3 152/4/3 157/4/3
f 159/1/3 154/1/3 153/1/3
f 159/5/3 153/5/3 144/5/3
f 160/5/3 145/5/3 154/5/3
f 160/1/3 154/1/3 159/1/3
f 161/4/3 155/4/3 147/4/3
f 162/5/3 156/5/3 155/5/3
f 162/4/3 155/4/3 161/4/3
f 163/5/3 156/5/3 162/5/3
f 164/4/3 150/4/3 156/4/3
f 164/5/3 156/5/3 163/5/3
f 165/4/3 150/4/3 164/4/3
f 166/5/3 157/5/3 150/5/3
f 166/4/3 150/4/3 165/4/3
f 166/5/3 158/5/3 157/5/3
f 167/5/3 158/5/3 166/5/3
f 168/5/3 158/5/3 167/5/3
f 169/2/3 143/2/3 158/2/3
f 169/5/3 158/5/3 168/5/3
f 170/4/3 144/4/3 143/4/3
f 170/2/3 143/2/3 169/2/3
f 171/5/3 159/5/3 144/5/3
f 171/5/3 160/5/3 159/5/3
f 172/5/3 145/5/3 160/5/3
f 172/5/3 160/5/3 171/5/3
f 173/2/3 163/2/3 162/2/3
f 173/2/3 162/2/3 161/2/3
f 174/2/3 163/2/3 173/2/3
f 175/4/3 165/4/3 164/4/3
f 175/2/3 163/2/3 174/2/3
f 175/4/3 164/4/3 163/4/3
f 176/4/3 165/4/3 175/4/3
f 177/5/3 166/5/3 165/5/3
f 177/4/3 165/4/3 176/4/3
f 177/5/3 167/5/3 166/5/3
f 178/5/3 167/5/3 177/5/3
f 179/1/3 168/1/3 167/1/3
f 179/5/3 167/5/3 178/5/3
f 180/5/3 169/5/3 168/5/3
f 180/1/3 168/1/3 179/1/3
f 180/5/3 170/5/3 169/5/3
f 181/5/3 170/5/3 180/5/3
f 182/4/3 144/4/3 170/4/3
f 182/5/3 170/5/3 181/5/3
f 183/5/3 171/5/3 144/5/3
f 183/1/3 172/1/3 171/1/3
f 184/5/3 145/5/3 172/5/3
f 184/1/3 172/1/3 183/1/3
f 185/4/3 174/4/3 173/4/3
f 185/5/3 176/5/3 175/5/3
f 185/5/3 175/5/3 174/5/3
f 186/4/3 178/4/3 177/4/3
f 186/5/3 176/5/3 185/5/3
f 186/4/3 177/4/3 176/4/3
f 187/5/3 179/5/3 178/5/3
f 187/5/3 181/5/3 180/5/3
f 187/5/3 180/5/3 179/5/3
f 188/2/3 182/2/3 181/2/3
f 188/5/3 181/5/3 187/5/3
f 189/4/3 185/4/3 173/4/3
f 190/2/3 186/2/3 185/2/3
f 190/4/3 185/4/3 189/4/3
f 191/4/3 178/4/3 186/4/3
f 191/2/3 186/2/3 190/2/3
f 192/5/3 187/5/3 178/5/3
f 192/4/3 178/4/3 191/4/3
f 193/4/3 188/4/3 187/4/3
f 193/5/3 187/5/3 192/5/3
f 194/2/3 182/2/3 188/2/3
f 194/4/3 188/4/3 193/4/3
f 195/4/3 144/4/3 182/4/3
f 195/5/3 183/5/3 144/5/3
f 195/5/3 184/5/3 183/5/3
f 196/5/3 145/5/3 184/5/3
f 196/5/3 184/5/3 195/5/3
f 196/4/3 146/4/3 145/4/3
f 197/4/3 193/4/3 192/4/3
f 197/5/3 192/5/3 191/5/3
f 198/2/3 194/2/3 193/2/3
f 198/4/3 193/4/3 197/4/3
f 199/4/3 195/4/3 182/4/3
f 199/2/3 194/2/3 198/2/3
f 199/2/3 182/2/3 194/2/3
f 199/4/3 196/4/3 195/4/3
f 200/4/3 196/4/3 199/4/3
f 201/4/3 146/4/3 196/4/3
f 201/4/3 196/4/3 200/4/3
f 202/2/3 58/2/3 146/2/3
f 202/4/3 146/4/3 201/4/3
f 203/2/3 190/2/3 189/2/3
f 203/2/3 191/2/3 190/2/3
f 203/5/3 197/5/3 191/5/3
f 204/2/3 198/2/3 197/2/3
f 204/5/3 197/5/3 203/5/3
f 204/2/3 200/2/3 199/2/3
f 204/2/3 199/2/3 198/2/3
f 205/4/3 201/4/3 200/4/3
f 205/2/3 200/2/3 204/2/3
f 206/2/3 202/2/3 201/2/3
f 206/4/3 201/4/3 205/4/3
f 207/2/3 203/2/3 189/2/3
f 207/2/3 204/2/3 203/2/3
f 207/2/3 206/2/3 205/2/3
f 207/2/3 205/2/3 204/2/3
f 208/2/3 202/2/3 206/2/3
f 208/2/3 206/2/3 207/2/3
f 208/2/3 58/2/3 202/2/3
f 209/3/4 210/3/4 211/3/4
f 211/3/4 210/3/4 212/3/4
f 213/3/4 214/3/4 215/3/4
f 215/3/4 214/3/4 216/3/4
f 213/3/4 215/3/4 217/3/4
f 216/3/4 214/3/4 218/3/4
f 213/3/4 217/3/4 219/3/4
f 217/3/4 218/3/4 219/3/4
f 218/3/4 214/3/4 220/3/4
f 219/3/4 218/3/4 220/3/4
f 221/3/4 222/3/4 223/3/4
f 223/3/4 222/3/4 224/3/4
f 225/3/4 226/3/4 227/3/4
f 227/3/4 226/3/4 228/3/4
f 231/3/5 230/3/5 229/3/5
f 232/3/5 230/3/5 231/3/5
f 235/3/5 234/3/5 233/3/5
f 236/3/5 234/3/5 235/3/5
f 239/3/5 238/3/5 237/3/5
f 240/3/5 238/3/5 239/3/5
f 241/3/5 239/3/5 237/3/5
f 242/3/5 239/3/5 241/3/5
f 243/3/5 239/3/5 242/3/5
f 244/3/5 238/3/5 240/3/5
f 245/3/5 243/3/5 242/3/5
f 245/3/5 244/3/5 243/3/5
f 246/3/5 238/3/5 244/3/5
f 246/3/5 244/3/5 245/3/5
f 249/3/5 248/3/5 247/3/5
f 250/3/5 248/3/5 249/3/5
f 251/3/6 252/3/6 253/3/6
f 253/3/6 252/3/6 254/3/6
f 251/3/6 253/3/6 255/3/6
f 254/3/6 252/3/6 256/3/6
f 251/3/6 255/3/6 257/3/6
f 255/3/6 256/3/6 257/3/6
f 256/3/6 252/3/6 258/3/6
f 257/3/6 256/3/6 258/3/6
f 259/3/6 260/3/6 261/3/6
f 261/3/6 260/3/6 262/3/6
f 263/3/6 264/3/6 265/3/6
f 265/3/6 264/3/6 266/3/6
f 266/3/6 264/3/6 267/3/6
f 267/3/6 264/3/6 268/3/6
f 268/3/6 264/3/6 269/3/6
f 269/3/6 264/3/6 270/3/6
f 270/3/6 264/3/6 271/3/6
f 271/3/6 264/3/6 272/3/6
f 272/3/6 264/3/6 273/3/6
f 273/3/6 264/3/6 274/3/6
f 275/3/6 276/3/6 277/3/6
f 277/3/6 276/3/6 278/3/6
f 278/3/6 276/3/6 279/3/6
f 279/3/6 276/3/6 280/3/6
